<?xml version="1.0" encoding="UTF-8" standalone="no"?>
<!-- Created with Inkscape (http://www.inkscape.org/) -->

<svg
   xmlns:dc="http://purl.org/dc/elements/1.1/"
   xmlns:cc="http://creativecommons.org/ns#"
   xmlns:rdf="http://www.w3.org/1999/02/22-rdf-syntax-ns#"
   xmlns:svg="http://www.w3.org/2000/svg"
   xmlns="http://www.w3.org/2000/svg"
   xmlns:sodipodi="http://sodipodi.sourceforge.net/DTD/sodipodi-0.dtd"
   xmlns:inkscape="http://www.inkscape.org/namespaces/inkscape"
   width="744.09448819"
   height="1052.3622047"
   id="svg2"
   version="1.1"
   inkscape:version="0.48.5 r10040"
   sodipodi:docname="calango_preto_fundo_branco.svg">
  <defs
     id="defs4">
    <clipPath
       id="clipPath3020"
       clipPathUnits="userSpaceOnUse">
      <path
         id="path3022"
         d="m 0,269.292 354.33,0 L 354.33,0 0,0 0,269.292 z" />
    </clipPath>
  </defs>
  <sodipodi:namedview
     id="base"
     pagecolor="#ffffff"
     bordercolor="#666666"
     borderopacity="1.0"
     inkscape:pageopacity="0.0"
     inkscape:pageshadow="2"
     inkscape:zoom="1.979899"
     inkscape:cx="288.27555"
     inkscape:cy="869.03967"
     inkscape:document-units="px"
     inkscape:current-layer="g3012"
     showgrid="false"
     inkscape:window-width="1920"
     inkscape:window-height="1004"
     inkscape:window-x="0"
     inkscape:window-y="0"
     inkscape:window-maximized="1" />
  <metadata
     id="metadata7">
    <rdf:RDF>
      <cc:Work
         rdf:about="">
        <dc:format>image/svg+xml</dc:format>
        <dc:type
           rdf:resource="http://purl.org/dc/dcmitype/StillImage" />
        <dc:title></dc:title>
      </cc:Work>
    </rdf:RDF>
  </metadata>
  <g
     inkscape:label="Layer 1"
     inkscape:groupmode="layer"
     id="layer1">
    <g
       transform="matrix(1.25,0,0,-1.25,81.400896,432.09761)"
       inkscape:label="125x95"
       id="g3012"
       inkscape:export-xdpi="609.59998"
       inkscape:export-ydpi="609.59998">
      <g
         id="g3975"
         transform="matrix(0.57644385,0,0,0.57644385,-59.126422,148.75718)">
        <g
           id="g3024"
           transform="translate(59.7642,146.1479)">
          <path
             inkscape:connector-curvature="0"
             d="m 0,0 c 0,-1.749 -1.402,-3.166 -3.135,-3.166 -1.733,0 -3.137,1.417 -3.137,3.166 0,1.746 1.404,3.163 3.137,3.163 C -1.402,3.163 0,1.746 0,0 z"
             style="fill:none;stroke:#292929;stroke-width:1;stroke-linecap:butt;stroke-linejoin:miter;stroke-miterlimit:10;stroke-opacity:1;stroke-dasharray:none"
             id="path3026" />
        </g>
        <g
           id="g3040"
           transform="translate(59.7642,146.1479)">
          <path
             inkscape:connector-curvature="0"
             d="M 0,0 108.984,0 0,0 z"
             style="fill:none;stroke:#292929;stroke-width:1;stroke-linecap:butt;stroke-linejoin:miter;stroke-miterlimit:10;stroke-opacity:1;stroke-dasharray:none"
             id="path3042" />
        </g>
        <g
           id="g3044"
           transform="translate(228.749,229.7485)">
          <path
             inkscape:connector-curvature="0"
             d="M 0,0 66.599,0"
             style="fill:#373535;fill-opacity:1;fill-rule:nonzero;stroke:#292929;stroke-width:1;stroke-linecap:butt;stroke-linejoin:miter;stroke-miterlimit:10;stroke-opacity:1;stroke-dasharray:none"
             id="path3046" />
        </g>
        <g
           id="g3048"
           transform="translate(294.8896,229.7485)">
          <path
             inkscape:connector-curvature="0"
             d="M 0,0 0,12.483"
             style="fill:#201f1f;fill-opacity:1;fill-rule:nonzero;stroke:#292929;stroke-width:1;stroke-linecap:butt;stroke-linejoin:miter;stroke-miterlimit:10;stroke-opacity:1;stroke-dasharray:none"
             id="path3050" />
        </g>
        <g
           id="g3052"
           transform="translate(298.0244,244.5947)">
          <path
             inkscape:connector-curvature="0"
             d="m 0,0 c 0,-1.749 -1.402,-3.166 -3.135,-3.166 -1.732,0 -3.136,1.417 -3.136,3.166 0,1.746 1.404,3.163 3.136,3.163 C -1.402,3.163 0,1.746 0,0"
             style="fill:#ffffff;fill-opacity:1;fill-rule:nonzero;stroke:none"
             id="path3054" />
        </g>
        <g
           id="g3056"
           transform="translate(298.0244,244.5947)">
          <path
             inkscape:connector-curvature="0"
             d="m 0,0 c 0,-1.749 -1.402,-3.166 -3.135,-3.166 -1.732,0 -3.136,1.417 -3.136,3.166 0,1.746 1.404,3.163 3.136,3.163 C -1.402,3.163 0,1.746 0,0 z"
             style="fill:none;stroke:#292929;stroke-width:1;stroke-linecap:butt;stroke-linejoin:miter;stroke-miterlimit:10;stroke-opacity:1;stroke-dasharray:none"
             id="path3058" />
        </g>
        <g
           id="g3060"
           transform="translate(145.6621,81.8193)">
          <path
             inkscape:connector-curvature="0"
             d="m 0,0 c 1.847,22.949 15.149,36.321 26.878,43.33 4.66,2.723 13.78,8.394 19.091,10.545 0.688,0.279 1.308,0.554 1.898,0.822 -1.488,3.085 -1.759,7.46 -1.654,11.705 C 40.902,64.113 35.3,55.75 30.229,57.662 c -4.747,1.792 -7.417,6.017 -12.12,9.776 -0.726,0.762 -3.993,3.005 -3.081,4.438 0.471,1.565 5.924,-4.759 6.633,-3.628 1.404,2.25 -8.379,19.643 -6.652,20.578 2.238,1.046 7.892,-15.47 8.445,-15.195 1.609,0.314 -1.914,11.024 0.151,11.175 1.754,0.129 2.778,-8.843 2.938,-10.166 0.499,-2.134 1.443,-1.877 1.66,-0.157 0.045,2.285 -0.439,7.009 0.596,7.421 3.022,0.404 1.084,-9.716 2.335,-9.882 0.992,-0.105 0.903,7.035 3.569,5.428 0.672,-0.543 -2.418,-10.876 -0.788,-11.401 5.106,2.16 7.514,8.975 13.913,9.47 8.379,0.647 4.712,-12.631 8.616,-12.884 0.074,-0.005 3.415,0.412 3.492,0.418 0.194,-0.046 0.83,-0.017 1.475,0.007 1.035,0.641 2.176,1.327 3.463,2.073 11.883,6.911 19.314,19.378 20.658,32.363 -0.6,2.681 -0.797,5.391 -3.461,6.551 -3.305,-7.351 -8.226,-16.185 -15.103,-6.691 -2.349,3.242 -4.194,6.717 -8.335,7.225 -2.397,0.296 -9.654,-1.286 -10.55,0.709 -0.804,1.382 2.889,0.832 3.997,0.981 7.363,-0.391 -4.736,9.779 -5.531,10.64 -0.473,0.502 -1.483,1.141 -1.162,1.487 1.767,1.738 7.743,-6.124 9.409,-4.729 0.233,0.328 -0.278,0.905 -0.472,1.145 -1.499,1.69 -2.869,3.517 -2.732,4.301 0.242,0.785 1.233,0.171 1.685,-0.386 1.383,-1.545 4.036,-4.955 4.433,-4.189 -0.034,1.826 -1.644,5.338 -0.294,5.36 1.188,0.022 1.556,-4.242 2.842,-5.016 1.358,-0.783 2.668,5.4 3.454,4.083 0.561,-0.822 -0.709,-2.734 -0.763,-4.667 -0.066,-2.265 1.247,-3.962 2.126,-5.856 0.849,-1.825 5.112,-7.894 7.702,-6.904 1.83,0.702 4.386,7.835 5.244,9.516 1.177,2.296 2.936,3.876 4.485,5.559 -4.799,10.139 -14.533,19.666 -22.186,17.684 -1.935,-0.499 -3.854,-0.874 -5.745,-1.153 0.05,-0.102 0.089,-0.209 0.1,-0.322 0.067,-1.038 -1.77,-2.004 -4.103,-2.163 -2.332,-0.157 -4.275,0.558 -4.347,1.596 -0.008,0.111 0.015,0.229 0.054,0.342 -11.271,0.152 -20.073,4.029 -21.542,8.441 -1.858,5.59 8.271,12.274 18.509,15.742 0.011,0.938 1.289,2.215 3.133,3.039 2.108,0.935 4.152,0.927 4.568,-0.024 0.139,-0.316 0.066,-0.693 -0.15,-1.094 2.59,0.425 4.971,0.543 6.902,0.244 22.087,-3.381 46.953,-14.369 57.421,-42.705 0.23,-0.638 0.451,-1.28 0.663,-1.931 3.295,-3.476 7.707,-6.686 10.693,-7.519 2.124,-0.587 7.278,5.36 8.019,8.831 0.173,2.568 -3.035,9.524 -3.402,11.949 0.47,1.201 1.089,0.735 1.38,0.366 0.179,-0.018 1.363,-3.255 2.366,-4.035 0.959,-0.809 1.438,8.286 3.063,8.09 1.497,-0.183 -0.736,-6.806 0.635,-7.238 1.273,-0.281 5.134,9.636 6.64,8.989 1.452,-0.981 -4.053,-9.152 -2.611,-10.641 0.783,-0.82 7.936,9.55 8.95,8.572 1.363,-1.321 -6.995,-10.112 -6.549,-12.241 0.605,-1.254 7.032,0.963 7.315,0.124 0.815,-1.796 -6.975,-2.958 -10.001,-4.648 -4.34,-2.422 -8.14,-16.198 -12.027,-16.889 -1.488,-0.264 -7.423,2.385 -12.176,4.578 C 119.634,83.755 111.759,62.231 91.45,50.302 82.793,45.042 76.409,40.901 68.059,37.865 71.541,34.427 76.069,25.698 76.604,22.523 77.582,16.738 65.82,13.348 62.035,10.317 63.647,8.43 66.473,6.762 68.771,6.064 70.774,5.45 75.346,5.438 75.106,3.717 74.959,2.636 69.778,3.726 68.167,3.572 c -0.389,-0.78 7.328,-3.529 6.425,-5.07 -1.113,-1.898 -8.111,3.27 -8.696,2.468 -0.197,-0.347 9.396,-10.303 8.277,-11.469 -1.49,-1.562 -10.014,9.914 -10.83,8.907 2.283,-4.263 8.618,-15.461 7.351,-17.1 -1.048,-1.37 -8.075,12.773 -11.1,17.298 -3.643,-0.348 0.506,-9.542 -2.26,-9.925 -1.291,-0.174 -2.688,13.035 -2.985,17.999 -0.18,2.966 2.789,6.103 4.852,8.286 2.534,2.681 6.619,4.175 8.711,6.627 -1.491,1.28 -3.584,1.866 -5.15,2.959 -1.479,1.026 -2.891,2.496 -4.336,3.511 -2.112,1.487 -4.713,3.36 -6.424,5.712 C 44.652,31.817 35,26.965 32.529,25.044 23.992,17.998 1.912,-2.911 19.5,-34.72 41.316,-65.38 87.184,-52.217 88.089,-55.587 89.802,-61.988 -6.287,-77.98 0,0"
             style="fill:#373536;fill-opacity:1;fill-rule:nonzero;stroke:none"
             id="path3062" />
        </g>
        <g
           style="stroke:#4d4d4d"
           id="g3157">
          <g
             style="stroke:#4d4d4d"
             transform="translate(150.6094,209.814)"
             id="g3028">
            <path
               id="path3030"
               style="fill:#ffffff;fill-opacity:1;fill-rule:evenodd;stroke:#4d4d4d"
               d="M 0,0 0.601,0 0,0 z"
               inkscape:connector-curvature="0" />
          </g>
          <g
             style="stroke:#4d4d4d"
             transform="translate(150.9121,191.6562)"
             id="g3032">
            <path
               id="path3034"
               style="fill:#373536;fill-opacity:1;fill-rule:evenodd;stroke:#4d4d4d"
               d="M 0,0 0.598,0 0,0 z"
               inkscape:connector-curvature="0" />
          </g>
          <g
             style="stroke:#4d4d4d"
             transform="translate(77.8276,202.8838)"
             id="g3064">
            <path
               id="path3066"
               style="fill:#ffffff;fill-opacity:1;fill-rule:nonzero;stroke:#4d4d4d"
               d="m 0,0 c -0.164,-1.012 -0.46,-1.917 -0.888,-2.714 -0.425,-0.798 -0.957,-1.454 -1.592,-1.969 -0.635,-0.514 -1.348,-0.898 -2.144,-1.151 -0.794,-0.253 -1.639,-0.379 -2.538,-0.379 -2.098,0 -3.845,0.715 -5.246,2.145 -0.827,0.837 -1.354,1.788 -1.579,2.851 -0.224,1.064 -0.337,2.416 -0.337,4.055 l 0,0.641 0,0.641 c 0,1.64 0.113,2.993 0.337,4.062 0.225,1.068 0.752,2.021 1.579,2.858 0.709,0.715 1.487,1.249 2.332,1.602 0.847,0.353 1.817,0.53 2.914,0.53 0.942,0 1.804,-0.129 2.591,-0.386 0.786,-0.257 1.488,-0.641 2.11,-1.151 0.623,-0.51 1.148,-1.16 1.573,-1.949 C -0.46,8.896 -0.164,7.988 0,6.958 l -4.718,0 c -0.165,0.62 -0.43,1.115 -0.798,1.485 -0.367,0.371 -0.909,0.556 -1.627,0.556 -0.397,0 -0.753,-0.074 -1.069,-0.222 C -8.527,8.628 -8.78,8.437 -8.97,8.201 -9.134,7.992 -9.266,7.741 -9.366,7.449 -9.465,7.157 -9.543,6.712 -9.599,6.115 -9.655,5.518 -9.683,4.639 -9.683,3.479 c 0,-1.543 0.056,-2.627 0.168,-3.25 0.113,-0.624 0.294,-1.11 0.545,-1.458 0.415,-0.542 1.024,-0.812 1.827,-0.812 0.701,0 1.239,0.186 1.614,0.556 0.376,0.371 0.646,0.866 0.811,1.485 L 0,0 z"
               inkscape:connector-curvature="0" />
          </g>
          <g
             style="stroke:#4d4d4d"
             transform="translate(88.7422,203.5771)"
             id="g3068">
            <path
               id="path3070"
               style="fill:#ffffff;fill-opacity:1;fill-rule:nonzero;stroke:#4d4d4d"
               d="M 0,0 -1.594,5.088 -3.292,0 0,0 z m 6.948,-6.75 -4.848,0 -0.881,2.839 -5.821,0 -0.92,-2.839 -4.861,0 6.87,19.071 3.591,0 6.87,-19.071 z"
               inkscape:connector-curvature="0" />
          </g>
          <g
             style="stroke:#4d4d4d"
             transform="translate(110.1826,196.8276)"
             id="g3072">
            <path
               id="path3074"
               style="fill:#ffffff;fill-opacity:1;fill-rule:nonzero;stroke:#4d4d4d"
               d="m 0,0 -12.574,0 0,19.071 4.641,0 0,-14.899 L 0,4.172 0,0 z"
               inkscape:connector-curvature="0" />
          </g>
          <g
             style="stroke:#4d4d4d"
             transform="translate(121.3696,203.5771)"
             id="g3076">
            <path
               id="path3078"
               style="fill:#ffffff;fill-opacity:1;fill-rule:nonzero;stroke:#4d4d4d"
               d="M 0,0 -1.594,5.088 -3.292,0 0,0 z m 6.948,-6.75 -4.848,0 -0.881,2.839 -5.821,0 -0.92,-2.839 -4.861,0 6.87,19.071 3.591,0 6.87,-19.071 z"
               inkscape:connector-curvature="0" />
          </g>
          <g
             style="stroke:#4d4d4d"
             transform="translate(144.9878,196.8276)"
             id="g3080">
            <path
               id="path3082"
               style="fill:#ffffff;fill-opacity:1;fill-rule:nonzero;stroke:#4d4d4d"
               d="m 0,0 -4.057,0 -6.054,9.588 0,-9.588 -4.64,0 0,19.071 4.059,0 6.051,-9.588 0,9.588 4.641,0 L 0,0 z"
               inkscape:connector-curvature="0" />
          </g>
          <g
             style="stroke:#4d4d4d"
             transform="translate(162.7856,205.1597)"
             id="g3084">
            <path
               id="path3086"
               style="fill:#ffffff;fill-opacity:1;fill-rule:nonzero;stroke:#4d4d4d"
               d="m 0,0 c 0,-1.57 -0.14,-2.838 -0.421,-3.806 -0.281,-0.968 -0.78,-1.814 -1.495,-2.538 -0.51,-0.523 -1.057,-0.946 -1.64,-1.269 -0.581,-0.323 -1.188,-0.549 -1.819,-0.68 -0.631,-0.131 -1.307,-0.196 -2.033,-0.196 -2.098,0 -3.846,0.715 -5.246,2.145 -0.827,0.837 -1.354,1.788 -1.579,2.851 -0.225,1.064 -0.337,2.416 -0.337,4.055 l 0,0.642 0,0.64 c 0,1.64 0.112,2.993 0.337,4.062 0.225,1.068 0.752,2.021 1.579,2.858 0.717,0.724 1.491,1.26 2.319,1.609 0.829,0.349 1.803,0.523 2.927,0.523 2.244,0 3.973,-0.606 5.187,-1.818 1.212,-1.212 1.945,-2.712 2.195,-4.5 l -4.68,0 c -0.19,0.75 -0.492,1.295 -0.907,1.635 -0.414,0.34 -1.015,0.51 -1.802,0.51 -0.794,0 -1.404,-0.279 -1.827,-0.837 C -9.398,5.686 -9.525,5.439 -9.625,5.147 -9.724,4.855 -9.8,4.406 -9.852,3.8 -9.903,3.194 -9.929,2.328 -9.929,1.204 c 0,-1.125 0.026,-1.993 0.077,-2.603 0.052,-0.611 0.128,-1.064 0.227,-1.361 0.1,-0.297 0.227,-0.545 0.383,-0.745 0.414,-0.541 1.024,-0.811 1.827,-0.811 0.908,0 1.599,0.253 2.075,0.758 0.475,0.48 0.713,1.156 0.713,2.028 l 0,0.274 -2.788,0 0,3.911 L 0,2.655 0,0 z"
               inkscape:connector-curvature="0" />
          </g>
          <g
             style="stroke:#4d4d4d"
             transform="translate(175.1265,206.3633)"
             id="g3088">
            <path
               id="path3090"
               style="fill:#ffffff;fill-opacity:1;fill-rule:nonzero;stroke:#4d4d4d"
               d="M 0,0 C 0,1.622 -0.054,2.729 -0.162,3.322 -0.27,3.915 -0.445,4.369 -0.687,4.683 -0.86,4.927 -1.113,5.127 -1.445,5.284 -1.778,5.441 -2.147,5.52 -2.554,5.52 -2.951,5.52 -3.31,5.443 -3.63,5.291 -3.949,5.138 -4.208,4.936 -4.407,4.683 -4.563,4.482 -4.69,4.235 -4.79,3.943 -4.889,3.651 -4.965,3.202 -5.017,2.596 -5.068,1.99 -5.094,1.125 -5.094,0 c 0,-1.116 0.026,-1.978 0.077,-2.583 0.052,-0.606 0.128,-1.054 0.227,-1.341 0.1,-0.288 0.227,-0.532 0.383,-0.733 0.44,-0.575 1.058,-0.863 1.853,-0.863 0.804,0 1.426,0.288 1.867,0.863 0.242,0.34 0.417,0.796 0.525,1.367 C -0.054,-2.719 0,-1.622 0,0 m 4.641,0 0,-0.641 C 4.641,-1.705 4.604,-2.621 4.53,-3.388 4.458,-4.155 4.282,-4.896 4.005,-5.612 3.729,-6.327 3.307,-6.972 2.737,-7.547 2.038,-8.254 1.266,-8.788 0.425,-9.15 c -0.842,-0.362 -1.834,-0.543 -2.972,-0.543 -0.769,0 -1.461,0.081 -2.078,0.242 -0.619,0.161 -1.189,0.399 -1.709,0.713 -0.523,0.314 -1.018,0.711 -1.485,1.191 -0.827,0.837 -1.354,1.787 -1.579,2.851 -0.225,1.064 -0.337,2.415 -0.337,4.055 l 0,0.641 0,0.641 c 0,1.639 0.112,2.993 0.337,4.061 0.225,1.069 0.752,2.021 1.579,2.858 0.717,0.724 1.493,1.26 2.325,1.609 0.834,0.349 1.817,0.523 2.947,0.523 1.138,0 2.128,-0.176 2.966,-0.529 C 1.255,8.81 2.029,8.275 2.737,7.56 3.307,6.985 3.729,6.337 4.005,5.618 4.282,4.898 4.458,4.155 4.53,3.388 4.604,2.62 4.641,1.705 4.641,0.641 L 4.641,0 z"
               inkscape:connector-curvature="0" />
          </g>
        </g>
        <g
           id="g3177">
          <g
             transform="translate(137.7158,184.0894)"
             id="g3036">
            <path
               id="path3038"
               style="fill:#292929;fill-opacity:1;fill-rule:evenodd;stroke:none"
               d="M 0,0 0.598,0 0,0 z"
               inkscape:connector-curvature="0" />
          </g>
          <g
             transform="translate(78.333,174.5039)"
             id="g3092">
            <path
               id="path3094"
               style="fill:#292929;fill-opacity:1;fill-rule:nonzero;stroke:none"
               d="m 0,0 -4.641,0 0,7.56 -4.938,0 0,-7.56 -4.641,0 0,19.071 4.641,0 0,-7.338 4.938,0 0,7.338 4.641,0 L 0,0 z"
               inkscape:connector-curvature="0" />
          </g>
          <g
             transform="translate(94.3164,177.0283)"
             id="g3096">
            <path
               id="path3098"
               style="fill:#292929;fill-opacity:1;fill-rule:nonzero;stroke:none"
               d="m 0,0 -1.4,0 0,-2.524 -4.135,0 0,2.524 -7.842,0 0,4.172 6.275,12.374 4.771,0 -6.263,-12.374 3.059,0 0,2.525 4.135,0 0,-2.525 1.4,0 L 0,0 z"
               inkscape:connector-curvature="0" />
          </g>
          <g
             transform="translate(110.6494,180.5601)"
             id="g3100">
            <path
               id="path3102"
               style="fill:#292929;fill-opacity:1;fill-rule:nonzero;stroke:none"
               d="m 0,0 c -0.164,-1.012 -0.46,-1.917 -0.888,-2.714 -0.425,-0.798 -0.957,-1.454 -1.592,-1.969 -0.635,-0.514 -1.348,-0.898 -2.144,-1.151 -0.794,-0.253 -1.639,-0.379 -2.538,-0.379 -2.098,0 -3.845,0.715 -5.246,2.145 -0.827,0.837 -1.354,1.788 -1.579,2.852 -0.224,1.063 -0.337,2.415 -0.337,4.054 l 0,0.641 0,0.641 c 0,1.64 0.113,2.993 0.337,4.062 0.225,1.068 0.752,2.021 1.579,2.858 0.709,0.715 1.487,1.249 2.332,1.602 0.847,0.353 1.817,0.53 2.914,0.53 0.942,0 1.804,-0.129 2.591,-0.386 0.786,-0.257 1.488,-0.641 2.11,-1.151 0.623,-0.51 1.148,-1.16 1.573,-1.949 C -0.46,8.896 -0.164,7.988 0,6.958 l -4.718,0 c -0.165,0.62 -0.43,1.115 -0.798,1.485 -0.367,0.371 -0.909,0.556 -1.627,0.556 -0.397,0 -0.753,-0.074 -1.069,-0.222 C -8.527,8.628 -8.78,8.437 -8.97,8.201 -9.134,7.992 -9.266,7.741 -9.366,7.449 -9.465,7.157 -9.543,6.712 -9.599,6.115 -9.655,5.518 -9.683,4.639 -9.683,3.479 c 0,-1.543 0.056,-2.626 0.168,-3.25 0.113,-0.624 0.294,-1.11 0.545,-1.458 0.415,-0.542 1.024,-0.812 1.827,-0.812 0.701,0 1.239,0.186 1.614,0.556 0.376,0.371 0.646,0.866 0.811,1.485 L 0,0 z"
               inkscape:connector-curvature="0" />
          </g>
          <g
             transform="translate(129.0435,174.5039)"
             id="g3104">
            <path
               id="path3106"
               style="fill:#292929;fill-opacity:1;fill-rule:nonzero;stroke:none"
               d="m 0,0 -5.405,0 -4.356,7.822 -1.594,-1.844 0,-5.978 -4.615,0 0,19.071 4.615,0 0,-6.75 5.47,6.75 5.678,0 L -6.663,11.354 0,0 z"
               inkscape:connector-curvature="0" />
          </g>
          <g
             transform="translate(143.8081,174.5039)"
             id="g3108">
            <path
               id="path3110"
               style="fill:#292929;fill-opacity:1;fill-rule:nonzero;stroke:none"
               d="m 0,0 -12.846,0 0,19.071 12.846,0 0,-4.173 -8.205,0 0,-3.191 7.013,0 0,-4.173 -7.013,0 0,-3.362 L 0,4.172 0,0 z"
               inkscape:connector-curvature="0" />
          </g>
          <g
             transform="translate(156.395,187.4336)"
             id="g3112">
            <path
               id="path3114"
               style="fill:#292929;fill-opacity:1;fill-rule:nonzero;stroke:none"
               d="M 0,0 C 0,0.338 -0.08,0.656 -0.24,0.953 -0.402,1.247 -0.635,1.485 -0.942,1.661 -1.251,1.84 -1.607,1.929 -2.016,1.929 l -2.637,0 0,-3.845 2.637,0 c 0.409,0 0.765,0.089 1.074,0.268 0.307,0.176 0.54,0.412 0.702,0.704 C -0.08,-0.654 0,-0.338 0,0 m 5.639,-12.93 -5.367,0 -3.353,7.103 -1.572,0 0,-7.103 -4.641,0 0,19.071 7.486,0 c 1.354,0 2.516,-0.286 3.482,-0.856 C 2.643,4.713 3.377,3.961 3.882,3.028 4.388,2.095 4.641,1.088 4.641,0.007 4.641,-1.188 4.34,-2.21 3.742,-3.061 3.144,-3.911 2.417,-4.55 1.564,-4.977 l 4.075,-7.953 z"
               inkscape:connector-curvature="0" />
          </g>
        </g>
        <g
           style="stroke:#4d4d4d;stroke-opacity:1"
           id="g3193">
          <g
             style="stroke:#4d4d4d;stroke-opacity:1"
             transform="translate(77.8276,158.2363)"
             id="g3116">
            <path
               id="path3118"
               style="fill:#ffffff;fill-opacity:1;fill-rule:nonzero;stroke:#4d4d4d;stroke-opacity:1"
               d="m 0,0 c -0.164,-1.012 -0.46,-1.917 -0.888,-2.714 -0.425,-0.798 -0.957,-1.454 -1.592,-1.969 -0.635,-0.514 -1.348,-0.898 -2.144,-1.151 -0.794,-0.253 -1.639,-0.379 -2.538,-0.379 -2.098,0 -3.845,0.715 -5.246,2.145 -0.827,0.837 -1.354,1.788 -1.579,2.852 -0.224,1.063 -0.337,2.415 -0.337,4.054 l 0,0.641 0,0.641 c 0,1.64 0.113,2.993 0.337,4.062 0.225,1.068 0.752,2.021 1.579,2.858 0.709,0.715 1.487,1.249 2.332,1.602 0.847,0.353 1.817,0.53 2.914,0.53 0.942,0 1.804,-0.129 2.591,-0.386 0.786,-0.257 1.488,-0.641 2.11,-1.151 0.623,-0.51 1.148,-1.16 1.573,-1.949 C -0.46,8.896 -0.164,7.988 0,6.958 l -4.718,0 c -0.165,0.62 -0.43,1.115 -0.798,1.485 -0.367,0.371 -0.909,0.556 -1.627,0.556 -0.397,0 -0.753,-0.074 -1.069,-0.222 C -8.527,8.628 -8.78,8.437 -8.97,8.201 -9.134,7.992 -9.266,7.741 -9.366,7.449 -9.465,7.157 -9.543,6.712 -9.599,6.115 -9.655,5.518 -9.683,4.639 -9.683,3.479 c 0,-1.543 0.056,-2.626 0.168,-3.25 0.113,-0.624 0.294,-1.11 0.545,-1.458 0.415,-0.542 1.024,-0.812 1.827,-0.812 0.701,0 1.239,0.186 1.614,0.556 0.376,0.371 0.646,0.866 0.811,1.485 L 0,0 z"
               inkscape:connector-curvature="0" />
          </g>
          <g
             style="stroke:#4d4d4d;stroke-opacity:1"
             transform="translate(92.8516,152.1802)"
             id="g3120">
            <path
               id="path3122"
               style="fill:#ffffff;fill-opacity:1;fill-rule:nonzero;stroke:#4d4d4d;stroke-opacity:1"
               d="m 0,0 -12.574,0 0,19.071 4.641,0 0,-14.899 L 0,4.172 0,0 z"
               inkscape:connector-curvature="0" />
          </g>
          <g
             style="stroke:#4d4d4d;stroke-opacity:1"
             transform="translate(109.5864,158.877)"
             id="g3124">
            <path
               id="path3126"
               style="fill:#ffffff;fill-opacity:1;fill-rule:nonzero;stroke:#4d4d4d;stroke-opacity:1"
               d="m 0,0 c 0,-1.002 -0.186,-1.931 -0.557,-2.786 -0.372,-0.855 -0.89,-1.587 -1.556,-2.197 -0.665,-0.611 -1.434,-1.075 -2.307,-1.393 -0.873,-0.319 -1.798,-0.478 -2.774,-0.478 -1.288,0 -2.483,0.284 -3.584,0.851 -1.102,0.566 -1.971,1.371 -2.606,2.413 -0.635,1.042 -0.953,2.238 -0.953,3.59 l 0,12.374 4.641,0 0,-12.269 c 0,-0.872 0.222,-1.555 0.67,-2.047 0.444,-0.493 1.058,-0.739 1.838,-0.739 0.503,0 0.949,0.109 1.337,0.327 0.392,0.218 0.69,0.536 0.899,0.955 0.208,0.418 0.311,0.92 0.311,1.504 l 0,12.269 4.641,0 L 0,0 z"
               inkscape:connector-curvature="0" />
          </g>
          <g
             style="stroke:#4d4d4d;stroke-opacity:1"
             transform="translate(122.5752,158.0728)"
             id="g3128">
            <path
               id="path3130"
               style="fill:#ffffff;fill-opacity:1;fill-rule:nonzero;stroke:#4d4d4d;stroke-opacity:1"
               d="m 0,0 c 0,0.46 -0.134,0.85 -0.402,1.173 -0.268,0.32 -0.7,0.482 -1.296,0.482 l -3.137,0 0,-3.336 3.137,0 c 0.588,0 1.017,0.166 1.29,0.495 C -0.136,-0.857 0,-0.46 0,0 m -0.272,7.417 c 0,0.425 -0.132,0.789 -0.395,1.094 -0.264,0.303 -0.69,0.455 -1.277,0.455 l -2.891,0 0,-3.099 2.891,0 c 0.57,0 0.991,0.152 1.263,0.455 0.273,0.303 0.409,0.669 0.409,1.095 M 4.641,-0.272 C 4.641,-1.168 4.494,-1.966 4.2,-2.664 3.906,-3.362 3.496,-3.95 2.971,-4.428 2.443,-4.907 1.812,-5.271 1.08,-5.52 0.346,-5.769 -0.432,-5.893 -1.251,-5.893 l -8.225,0 0,19.071 7.836,0 c 1.277,0 2.37,-0.228 3.275,-0.686 C 2.543,12.034 3.226,11.386 3.688,10.554 4.15,9.721 4.381,8.755 4.381,7.654 4.381,6.73 4.157,5.952 3.708,5.319 3.258,4.685 2.792,4.208 2.308,3.885 2.93,3.51 3.474,3.015 3.941,2.402 c 0.466,-0.614 0.7,-1.506 0.7,-2.674"
               inkscape:connector-curvature="0" />
          </g>
          <g
             style="stroke:#4d4d4d;stroke-opacity:1"
             transform="translate(143.2769,152.1802)"
             id="g3132">
            <path
               id="path3134"
               style="fill:#ffffff;fill-opacity:1;fill-rule:nonzero;stroke:#4d4d4d;stroke-opacity:1"
               d="m 0,0 -12.846,0 0,19.071 12.846,0 0,-4.173 -8.206,0 0,-3.191 7.013,0 0,-4.173 -7.013,0 0,-3.362 L 0,4.172 0,0 z"
               inkscape:connector-curvature="0" />
          </g>
        </g>
      </g>
      <text
         xml:space="preserve"
         style="font-size:16px;font-style:normal;font-variant:normal;font-weight:normal;font-stretch:normal;text-align:end;line-height:125%;letter-spacing:0px;word-spacing:0px;text-anchor:end;fill:#000000;fill-opacity:1;stroke:none;font-family:Courier New;-inkscape-font-specification:Courier New"
         x="99.262474"
         y="-98.702652"
         id="text4036"
         sodipodi:linespacing="125%"
         transform="scale(1,-1)"><tspan
           sodipodi:role="line"
           id="tspan4038"
           x="99.262474"
           y="-98.702652">calango.club</tspan></text>
    </g>
  </g>
</svg>
